<svg width="207" height="199" viewBox="0 0 207 199" fill="none" xmlns="http://www.w3.org/2000/svg">
<g clip-path="url(#clip0_27_1888)">
<path d="M88.5231 22.1628H125.64V37.1553H147.78V19.4715C147.78 16.5193 146.612 13.6868 144.533 11.5932L136.293 3.29613C134.198 1.1863 131.349 0 128.377 0H78.1497C75.2011 0 72.3723 1.16772 70.2809 3.24835L61.8634 11.6222C59.7549 13.7199 58.5692 16.5727 58.5692 19.5485V47.1814L88.5231 67.0472V22.1628ZM114.733 37.1553H103.5V52.1478H118.477V67.1403H103.5V89.3031H88.5231V67.1403H58.5692V84.7762C58.5692 87.7568 59.7587 90.6138 61.8734 92.7122L70.2827 101.057C72.3732 103.132 75.1978 104.296 78.1415 104.296H128.846C131.797 104.296 134.628 103.126 136.72 101.042L145.142 92.6517C147.247 90.5545 148.431 87.704 148.431 84.731V59.5354L114.733 37.1553Z" fill="white"/>
<path d="M47.6896 159.014V136.622H56.9502V129.904H30.5998V136.622H39.8604V159.014H47.6896ZM46.2135 176.608H55.4741V199H63.3034V176.608H72.564V169.89H46.2135V176.608ZM0.178877 199H8.05231V189.685H19.4605V183.012H8.05238V176.608H23.9793V169.89H0.178877V199ZM131.304 129.904H123.475V159.014H131.304V129.904ZM20.4451 129.904H5.50226C2.19178 129.904 0 131.293 0 134.965V140.026C0 143.161 0.849843 144.504 3.62364 145.4L18.5212 149.206V152.565H7.73923V148.624H0V153.237C0 157.223 2.68432 159.014 5.95007 159.014H20.2215C24.0687 159.014 26.2163 156.686 26.2163 153.103V148.804C26.2163 145.266 25.5 144.012 22.6369 143.116L7.7393 139.399V136.353H18.5213V139.847H26.2163V136.443C26.2163 132.278 25.008 129.904 20.4451 129.904ZM31.227 199H39.0557V169.89H31.227V199ZM183.512 159.014H192.057L196.755 145.713C197.157 144.773 197.873 142.489 198.723 139.757C198.589 142.086 198.5 144.236 198.5 145.445V159.014H205.568V129.904H195.368L187.986 150.774H187.628L180.023 129.904H169.778V159.014H176.936V145.355C176.936 144.012 176.802 141.772 176.668 139.309C177.562 142.265 178.368 144.818 178.77 145.713L183.512 159.014ZM167.229 169.89H152.286C148.975 169.89 146.783 171.279 146.783 174.951V180.011C146.783 183.146 147.633 184.49 150.407 185.386L165.305 189.193V192.551H154.523V188.61H146.783V193.223C146.783 197.209 149.468 199 152.734 199H167.005C170.852 199 173 196.671 173 193.089V188.789C173 185.251 172.283 183.998 169.42 183.102L154.523 179.385V176.339H165.305V179.832H173V176.429C173 172.264 171.792 169.89 167.229 169.89ZM77.6637 129.904H65.4056L56.816 159.014H64.7794L66.2555 153.819H76.769L78.2009 159.014H86.1638L77.6637 129.904ZM68.0005 147.549L71.1768 136.219H71.8478L75.0247 147.549H68.0005ZM163.873 153.058V129.904H156.133V152.207H145.351V129.904H137.567V153.282C137.567 157.223 140.251 159.014 143.517 159.014H157.923C161.77 159.014 163.873 156.148 163.873 153.058ZM207 179.832V176.429C207 172.264 205.792 169.891 201.229 169.891H186.286C182.976 169.891 180.784 171.279 180.784 174.951V180.012C180.784 183.146 181.634 184.49 184.407 185.386L199.305 189.193V192.551H188.523V188.61H180.784V193.223C180.784 197.209 183.468 199 186.734 199H201.005C204.852 199 207 196.671 207 193.089V188.789C207 185.251 206.284 183.998 203.421 183.102L188.523 179.385V176.339H199.305V179.832H207ZM100.927 184.042C100.927 185.878 101.017 188.655 101.151 191.566C100.077 189.014 98.6902 186.103 96.9011 182.878L88.9823 169.89H79.3191V199H86.2533V185.923C86.2533 184.356 86.2085 181.893 86.119 179.205C87.1031 181.758 88.3561 184.445 89.8322 187.043L97.6166 199H107.862V169.89H100.927V184.042ZM117.212 136.264C117.212 132.323 116.138 129.904 112.201 129.904H90.772V159.014H111.307C115.288 159.014 117.212 156.014 117.212 153.013V136.264ZM109.517 152.207H98.6008V136.756H109.517V152.207ZM116.004 199H139.402V192.551H123.877V187.446H135.062V181.042H123.877V176.339H139.402V169.89H116.004V199Z" fill="white"/>
</g>
<defs>
<clipPath id="clip0_27_1888">
<rect width="207" height="199" fill="white"/>
</clipPath>
</defs>
</svg>
